<svg width="280" viewBox="0 0 409 165" xmlns="http://www.w3.org/2000/svg">
                <path
                    d="M50.1 18.2c1.6.5 3.2.8 4.7 1.4 3.9 1.7 6.8 4.3 8.1 8.5.5 1.7.7 3.5-.1 5.2-1 2.2-2.4 3.8-4.9 4s-4.7-.7-6-3c-.7-1.3-1.2-2.7-1.8-4.1-.6-1.3-1.2-2.7-2-4-2.1-3.3-8.2-2.9-10.3-.1-1.7 2.4-2.5 5-2.9 7.8-.9 6.8-.8 13.7.1 20.5 1.3 8.9 2.4 17.9 3.7 26.9.2 1.6.7 4.9.7 4.9l-11.3 7.3s-1-6.7-1.6-10.6l-2.7-19.8c-.7-5.7-1.7-11.4-1.4-17.2.6-8.6 3.6-16.3 10.2-22.2 3.3-3 7.3-4.7 11.8-5.2.2 0 .4-.1.5-.2 1.8-.1 3.5-.1 5.2-.1z"
                    fill="#fdb515"
                ></path>
                <g fill="#000">
                    <path
                        d="M116 70.1V76c2.5-4.2 6.6-6.3 12.2-6.3 4.6 0 8.3 1.5 11.2 4.6s4.3 7.2 4.3 12.5v23.5h-12.3V88.5c0-2.6-.7-4.6-2.1-6s-3.3-2.1-5.7-2.1-4.3.7-5.7 2.1-2.1 3.4-2.1 6v21.8h-12.1V70.1zM167.3 99.9h4.4v10.4h-6.3c-4.5 0-8-1-10.5-3s-3.7-5.4-3.7-10.3V80.3h-3.7V70.1h3.7v-9.8h12.3v9.8h8.1v10.2h-8.1V97c0 1.9 1.3 2.9 3.8 2.9zM195.8 110.8c-5.9 0-10.7-1.9-14.4-5.7s-5.6-8.8-5.6-15 1.9-11.2 5.6-14.9 8.5-5.5 14.4-5.5 10.8 1.8 14.7 5.5c3.9 3.6 5.8 8.7 5.8 15.2 0 1.4-.1 2.7-.3 3.9h-27.6c.2 1.8 1 3.2 2.4 4.4 1.3 1.1 2.8 1.7 4.4 1.7s2.7-.2 3.5-.5 1.3-.6 1.7-.9.8-.8 1.4-1.5h13.3c-1.2 4-3.5 7.3-6.9 9.8-3.6 2.3-7.7 3.5-12.4 3.5zM201 82c-1.4-1.2-3.1-1.8-5.1-1.8s-3.6.6-5 1.8c-1.3 1.2-2.2 2.7-2.5 4.6h15c-.1-1.9-.9-3.5-2.4-4.6zM225.6 105c-3.6-3.8-5.3-8.8-5.3-14.8s1.8-10.9 5.3-14.8c3.6-3.9 7.9-5.8 13-5.8s9 1.9 11.8 5.7V70h12.3v40c0 5.6-1.5 10.3-4.6 14-1.5 1.9-3.6 3.4-6.3 4.5s-5.7 1.6-9.3 1.6c-6.1 0-11-1.2-14.6-3.7s-5.6-6.3-6.1-11.4h12.1c1.2 3 4 4.5 8.6 4.5 2.3 0 4.1-.8 5.6-2.3s2.2-3.9 2.2-7.2v-5.6c-3 4.2-7 6.3-12 6.3-4.9.1-9.2-1.8-12.7-5.7zm22.1-7.5c1.8-1.7 2.7-4.2 2.7-7.3s-.9-5.6-2.7-7.3-3.8-2.6-6.1-2.6-4.3.9-6.1 2.6-2.7 4.2-2.7 7.3.9 5.6 2.7 7.3 3.8 2.6 6.1 2.6 4.3-.8 6.1-2.6zM281.5 70.1v7.5c2.9-5.3 6.7-7.9 11.5-7.9v12.5h-3c-2.8 0-5 .7-6.4 2s-2.1 3.7-2.1 7.1v19h-12.3V70.1zM310.9 65.6c-1.4 1.4-3.1 2.1-5.1 2.1s-3.7-.7-5.1-2.1-2.1-3.1-2.1-5.1.7-3.8 2.1-5.1c1.4-1.4 3.1-2.1 5.1-2.1s3.7.7 5.1 2.1 2.1 3.1 2.1 5.1-.7 3.7-2.1 5.1zm-11.2 44.7V70.1H312v40.2zM340.7 70.1v10.2h-5.1v30h-12.3v-30h-3.7V70.1h3.7v-1.5c0-5.1 1.4-8.8 4.1-11.2s7-3.5 12.8-3.5v10.4c-1.6 0-2.8.3-3.5.9s-1 1.7-1 3.3V70zM359.7 109.5l-15.6-39.4h14l8.9 26.3 9.8-26.3h12.9l-25.6 59.3h-12.9zM94.9 65.6c-1.4 1.4-3.1 2.1-5.1 2.1s-3.7-.7-5.1-2.1-2.1-3.1-2.1-5.1.7-3.8 2.1-5.1c1.4-1.4 3.1-2.1 5.1-2.1s3.7.7 5.1 2.1 2.1 3.1 2.1 5.1-.7 3.7-2.1 5.1zm-11.2 44.7V70.1H96v40.2zM54.2 76.9s1.7 9.4 2.5 15.5c.9 7 1.9 14 2.3 21 .5 9.1-1.7 17.5-7.6 24.7-3.7 4.4-8.5 7-14.2 7.7-.2 0-.4.1-.6.2h-5.2c-1.6-.5-3.2-.8-4.7-1.4-4.2-1.8-7.2-4.7-8.3-9.3-.4-1.9-.2-3.7.9-5.4 2.6-3.9 8.1-3.5 10.3.2.8 1.3 1.3 2.8 1.8 4.2.7 1.8 1.4 3.6 3 4.9 2.1 1.7 6 1.7 8-.2 2.1-1.9 3-4.4 3.5-7 1.1-5.1 1.2-10.3.9-15.4-.4-8.1-1.5-16-2.6-24-.4-2.8-1.2-8.5-1.2-8.5z"
                    ></path>
                </g>
            </svg>